<svg width="16" height="16" viewBox="0 0 16 16" fill="none" xmlns="http://www.w3.org/2000/svg">
<g id="Icon">
<path id="Vector" d="M14.3688 4.42491C14.3671 4.42491 14.3655 4.42425 14.3643 4.42308C14.3632 4.42191 14.3625 4.42032 14.3625 4.41866C14.2722 4.26486 14.1428 4.13765 13.9875 4.04991L8.4875 0.956162C8.33849 0.872963 8.17067 0.829285 8 0.829285C7.82934 0.829285 7.66152 0.872963 7.5125 0.956162L2.0125 4.04991C1.85721 4.13765 1.72784 4.26486 1.6375 4.41866C1.6375 4.42032 1.63685 4.42191 1.63567 4.42308C1.6345 4.42425 1.63291 4.42491 1.63125 4.42491V4.43741C1.54485 4.58303 1.49949 4.74934 1.5 4.91866V11.0812C1.50032 11.2593 1.54793 11.4342 1.63798 11.5879C1.72802 11.7417 1.85727 11.8687 2.0125 11.9562L7.5125 15.0499C7.65097 15.1254 7.80492 15.1682 7.9625 15.1749H8.05C8.20362 15.1681 8.35348 15.1253 8.4875 15.0499L13.9875 11.9562C14.1427 11.8687 14.272 11.7417 14.362 11.5879C14.4521 11.4342 14.4997 11.2593 14.5 11.0812V4.91866C14.5009 4.74534 14.4556 4.5749 14.3688 4.42491ZM8 1.82491L12.9813 4.62491L11.0688 5.71241L6.025 2.93116L8 1.82491ZM8.05625 7.42491L3.025 4.62491L5 3.51241L10.05 6.29366L8.05625 7.42491ZM8.50625 13.8937L8.55625 8.29366L10.5625 7.14991V9.53116C10.5625 9.66377 10.6152 9.79095 10.709 9.88472C10.8027 9.97848 10.9299 10.0312 11.0625 10.0312C11.1951 10.0312 11.3223 9.97848 11.4161 9.88472C11.5098 9.79095 11.5625 9.66377 11.5625 9.53116V6.58116L13.5 5.48116V11.0812L8.50625 13.8937Z" fill="#FAFAFA"/>
</g>
</svg>
