<svg width="16" height="16" viewBox="0 0 16 16" fill="none" xmlns="http://www.w3.org/2000/svg">
<g id="Icon">
<path id="Vector" d="M5 3.5V1.5C5 1.36739 5.05268 1.24021 5.14645 1.14645C5.24021 1.05268 5.36739 1 5.5 1C5.63261 1 5.75979 1.05268 5.85355 1.14645C5.94732 1.24021 6 1.36739 6 1.5V3.5C6 3.63261 5.94732 3.75979 5.85355 3.85355C5.75979 3.94732 5.63261 4 5.5 4C5.36739 4 5.24021 3.94732 5.14645 3.85355C5.05268 3.75979 5 3.63261 5 3.5ZM7.5 4C7.63261 4 7.75979 3.94732 7.85355 3.85355C7.94732 3.75979 8 3.63261 8 3.5V1.5C8 1.36739 7.94732 1.24021 7.85355 1.14645C7.75979 1.05268 7.63261 1 7.5 1C7.36739 1 7.24021 1.05268 7.14645 1.14645C7.05268 1.24021 7 1.36739 7 1.5V3.5C7 3.63261 7.05268 3.75979 7.14645 3.85355C7.24021 3.94732 7.36739 4 7.5 4ZM9.5 4C9.63261 4 9.75979 3.94732 9.85355 3.85355C9.94732 3.75979 10 3.63261 10 3.5V1.5C10 1.36739 9.94732 1.24021 9.85355 1.14645C9.75979 1.05268 9.63261 1 9.5 1C9.36739 1 9.24021 1.05268 9.14645 1.14645C9.05268 1.24021 9 1.36739 9 1.5V3.5C9 3.63261 9.05268 3.75979 9.14645 3.85355C9.24021 3.94732 9.36739 4 9.5 4ZM15.5 7.5V8C15.4997 8.63576 15.2571 9.2475 14.8217 9.71077C14.3863 10.174 13.7908 10.454 13.1562 10.4937C12.8119 11.457 12.2317 12.3186 11.4688 13H13C13.1326 13 13.2598 13.0527 13.3536 13.1464C13.4473 13.2402 13.5 13.3674 13.5 13.5C13.5 13.6326 13.4473 13.7598 13.3536 13.8536C13.2598 13.9473 13.1326 14 13 14H2C1.86739 14 1.74021 13.9473 1.64645 13.8536C1.55268 13.7598 1.5 13.6326 1.5 13.5C1.5 13.3674 1.55268 13.2402 1.64645 13.1464C1.74021 13.0527 1.86739 13 2 13H3.53125C2.89408 12.4359 2.38363 11.7432 2.03352 10.9676C1.68341 10.192 1.50158 9.35099 1.5 8.5V5.5C1.5 5.36739 1.55268 5.24021 1.64645 5.14645C1.74021 5.05268 1.86739 5 2 5H13C13.663 5 14.2989 5.26339 14.7678 5.73223C15.2366 6.20107 15.5 6.83696 15.5 7.5ZM14.5 7.5C14.4996 7.1901 14.4033 6.88792 14.2243 6.63499C14.0452 6.38206 13.7922 6.1908 13.5 6.0875V8.5C13.5004 8.81401 13.4753 9.12754 13.425 9.4375C13.7352 9.34585 14.0075 9.15636 14.2013 8.8973C14.395 8.63824 14.4998 8.32349 14.5 8V7.5Z" fill="#FAFAFA"/>
</g>
</svg>
