<svg width="16" height="17" viewBox="0 0 16 17" fill="none" xmlns="http://www.w3.org/2000/svg">
<g id="Icon">
<path id="Vector (Stroke)" fill-rule="evenodd" clip-rule="evenodd" d="M1 4.5C1 3.94772 1.44772 3.5 2 3.5H14C14.5523 3.5 15 3.94772 15 4.5V12.5C15 13.0523 14.5523 13.5 14 13.5H2C1.44772 13.5 1 13.0523 1 12.5V4.5ZM14 4.5H2V12.5H14V4.5Z" fill="#8047F8"/>
<path id="Vector (Stroke)_2" fill-rule="evenodd" clip-rule="evenodd" d="M10 11C10 10.7239 10.2239 10.5 10.5 10.5H12.5C12.7761 10.5 13 10.7239 13 11C13 11.2761 12.7761 11.5 12.5 11.5H10.5C10.2239 11.5 10 11.2761 10 11Z" fill="#8047F8"/>
<path id="Vector (Stroke)_3" fill-rule="evenodd" clip-rule="evenodd" d="M7 11C7 10.7239 7.22386 10.5 7.5 10.5H8.5C8.77614 10.5 9 10.7239 9 11C9 11.2761 8.77614 11.5 8.5 11.5H7.5C7.22386 11.5 7 11.2761 7 11Z" fill="#8047F8"/>
<path id="Vector (Stroke)_4" fill-rule="evenodd" clip-rule="evenodd" d="M1 6.55627C1 6.28013 1.22386 6.05627 1.5 6.05627H14.5C14.7761 6.05627 15 6.28013 15 6.55627C15 6.83242 14.7761 7.05627 14.5 7.05627H1.5C1.22386 7.05627 1 6.83242 1 6.55627Z" fill="#8047F8"/>
</g>
</svg>
