<svg width="17" height="17" viewBox="0 0 17 17" fill="none" xmlns="http://www.w3.org/2000/svg">
<g id="Icon" clip-path="url(#clip0_18345_460)">
<path id="Vector (Stroke)" fill-rule="evenodd" clip-rule="evenodd" d="M8.40474 2.07417C8.56545 1.97528 8.76814 1.97528 8.92884 2.07417L15.4288 6.07417C15.6194 6.19141 15.7088 6.42093 15.6479 6.63617C15.587 6.85141 15.3905 7 15.1668 7H2.16679C1.94309 7 1.74661 6.85141 1.68569 6.63617C1.62477 6.42093 1.71423 6.19141 1.90474 6.07417L8.40474 2.07417ZM3.93331 6H13.4003L8.66679 3.08709L3.93331 6Z" fill="#8047F8"/>
<path id="Vector (Stroke)_2" fill-rule="evenodd" clip-rule="evenodd" d="M4.16675 6C4.44289 6 4.66675 6.22386 4.66675 6.5V11.5C4.66675 11.7761 4.44289 12 4.16675 12C3.89061 12 3.66675 11.7761 3.66675 11.5V6.5C3.66675 6.22386 3.89061 6 4.16675 6Z" fill="#8047F8"/>
<path id="Vector (Stroke)_3" fill-rule="evenodd" clip-rule="evenodd" d="M7.16675 6C7.44289 6 7.66675 6.22386 7.66675 6.5V11.5C7.66675 11.7761 7.44289 12 7.16675 12C6.89061 12 6.66675 11.7761 6.66675 11.5V6.5C6.66675 6.22386 6.89061 6 7.16675 6Z" fill="#8047F8"/>
<path id="Vector (Stroke)_4" fill-rule="evenodd" clip-rule="evenodd" d="M10.1667 6C10.4429 6 10.6667 6.22386 10.6667 6.5V11.5C10.6667 11.7761 10.4429 12 10.1667 12C9.89061 12 9.66675 11.7761 9.66675 11.5V6.5C9.66675 6.22386 9.89061 6 10.1667 6Z" fill="#8047F8"/>
<path id="Vector (Stroke)_5" fill-rule="evenodd" clip-rule="evenodd" d="M13.1667 6C13.4429 6 13.6667 6.22386 13.6667 6.5V11.5C13.6667 11.7761 13.4429 12 13.1667 12C12.8906 12 12.6667 11.7761 12.6667 11.5V6.5C12.6667 6.22386 12.8906 6 13.1667 6Z" fill="#8047F8"/>
<path id="Vector (Stroke)_6" fill-rule="evenodd" clip-rule="evenodd" d="M2.16675 11.5C2.16675 11.2239 2.39061 11 2.66675 11H14.6667C14.9429 11 15.1667 11.2239 15.1667 11.5C15.1667 11.7761 14.9429 12 14.6667 12H2.66675C2.39061 12 2.16675 11.7761 2.16675 11.5Z" fill="#8047F8"/>
<path id="Vector (Stroke)_7" fill-rule="evenodd" clip-rule="evenodd" d="M1.16675 13.5C1.16675 13.2239 1.39061 13 1.66675 13H15.6667C15.9429 13 16.1667 13.2239 16.1667 13.5C16.1667 13.7761 15.9429 14 15.6667 14H1.66675C1.39061 14 1.16675 13.7761 1.16675 13.5Z" fill="#8047F8"/>
</g>
<defs>
<clipPath id="clip0_18345_460">
<rect width="16" height="16" fill="white" transform="translate(0.666748 0.5)"/>
</clipPath>
</defs>
</svg>
