<svg width="17" height="17" viewBox="0 0 17 17" fill="none" xmlns="http://www.w3.org/2000/svg">
<g id="Icon" clip-path="url(#clip0_18345_271)">
<path id="Vector (Stroke)" fill-rule="evenodd" clip-rule="evenodd" d="M0.833252 5C0.833252 4.44772 1.28097 4 1.83325 4H14.8333C15.3855 4 15.8333 4.44772 15.8333 5V12C15.8333 12.5523 15.3855 13 14.8333 13H1.83325C1.28097 13 0.833252 12.5523 0.833252 12V5ZM14.8333 5H1.83325V12H14.8333V5Z" fill="#8047F8"/>
<path id="Vector (Stroke)_2" fill-rule="evenodd" clip-rule="evenodd" d="M8.33325 7C7.50482 7 6.83325 7.67157 6.83325 8.5C6.83325 9.32843 7.50482 10 8.33325 10C9.16168 10 9.83325 9.32843 9.83325 8.5C9.83325 7.67157 9.16168 7 8.33325 7ZM5.83325 8.5C5.83325 7.11929 6.95254 6 8.33325 6C9.71396 6 10.8333 7.11929 10.8333 8.5C10.8333 9.88071 9.71396 11 8.33325 11C6.95254 11 5.83325 9.88071 5.83325 8.5Z" fill="#8047F8"/>
<path id="Vector (Stroke)_3" fill-rule="evenodd" clip-rule="evenodd" d="M10.957 4.17075C11.1388 3.96294 11.4547 3.94188 11.6625 4.12372L15.6625 7.62372C15.8703 7.80556 15.8914 8.12144 15.7095 8.32926C15.5277 8.53708 15.2118 8.55814 15.004 8.37629L11.004 4.8763C10.7962 4.69445 10.7751 4.37857 10.957 4.17075Z" fill="#8047F8"/>
<path id="Vector (Stroke)_4" fill-rule="evenodd" clip-rule="evenodd" d="M15.7095 8.67075C15.8914 8.87857 15.8703 9.19445 15.6625 9.3763L11.6625 12.8763C11.4547 13.0581 11.1388 13.0371 10.957 12.8293C10.7751 12.6214 10.7962 12.3056 11.004 12.1237L15.004 8.62372C15.2118 8.44188 15.5277 8.46294 15.7095 8.67075Z" fill="#8047F8"/>
<path id="Vector (Stroke)_5" fill-rule="evenodd" clip-rule="evenodd" d="M5.70955 4.17075C5.89139 4.37857 5.87033 4.69445 5.66251 4.8763L1.66251 8.37629C1.45469 8.55814 1.13881 8.53708 0.95697 8.32926C0.775129 8.12144 0.796188 7.80556 1.00401 7.62372L5.00401 4.12372C5.21182 3.94188 5.52771 3.96294 5.70955 4.17075Z" fill="#8047F8"/>
<path id="Vector (Stroke)_6" fill-rule="evenodd" clip-rule="evenodd" d="M0.95697 8.67075C1.13881 8.46294 1.45469 8.44188 1.66251 8.62372L5.66251 12.1237C5.87033 12.3056 5.89139 12.6214 5.70955 12.8293C5.52771 13.0371 5.21182 13.0581 5.00401 12.8763L1.00401 9.3763C0.796188 9.19445 0.775129 8.87857 0.95697 8.67075Z" fill="#574F4D"/>
</g>
<defs>
<clipPath id="clip0_18345_271">
<rect width="16" height="16" fill="white" transform="translate(0.333252 0.5)"/>
</clipPath>
</defs>
</svg>
